<svg width="40" height="40" fill="none" xmlns="http://www.w3.org/2000/svg"><g opacity=".54" fill-rule="evenodd" clip-rule="evenodd" fill="#7A838D" clip-path="url(#clip0_0_1441)"><path d="M3.699 15.002c.357-.003 1.42-.098 1.87 1.42.302 1.023.785 2.698 1.447 5.026h.27c.71-2.454 1.198-4.13 1.464-5.026.455-1.534 1.59-1.42 2.046-1.42h3.506V25.91h-3.574v-6.43h-.24l-1.992 6.43h-2.69l-1.992-6.434h-.24v6.434H0V15h3.699zm15.736 0v6.433h.285l2.424-5.29a1.917 1.917 0 011.473-1.143h3.46V25.91h-3.65v-6.434h-.285l-2.376 5.29c-.47 1.049-1.521 1.144-1.521 1.144h-3.459V15h3.65zm20.254 5.184c-.51 1.442-2.108 2.475-3.877 2.475h-3.827v3.25h-3.47v-5.725h11.174zM35.979 15h-7.646c.182 2.428 2.274 4.508 4.439 4.508h7.158C40.343 17.489 38.92 15 35.979 15z"/></g><defs><clipPath id="clip0_0_1441"><path fill="#fff" d="M0 0h40v40H0z"/></clipPath></defs></svg>