<svg width="40" height="40" fill="none" xmlns="http://www.w3.org/2000/svg"><g opacity=".54" fill="#7A838D" clip-path="url(#clip0_0_1424)"><path d="M16.016 14.387l-2.033 11.979h3.252l2.034-11.98h-3.253zm-4.759.014l-3.184 8.17-.34-1.234c-.628-1.486-2.41-3.62-4.504-4.966l2.912 9.99 3.44-.006 5.12-11.957-3.444.003z"/><path d="M6.5 15.255c-.19-.73-.738-.948-1.417-.974H.042L0 14.52c3.923.955 6.518 3.258 7.595 6.026L6.5 15.255zm19.358 1.427a5.98 5.98 0 012.434.459l.293.138.44-2.596a8.36 8.36 0 00-2.912-.503c-3.213 0-5.478 1.625-5.495 3.953-.021 1.72 1.613 2.681 2.847 3.255 1.267.587 1.692.961 1.686 1.486-.01.802-1.01 1.17-1.944 1.17-1.302 0-1.994-.18-3.062-.628l-.418-.191-.458 2.681c.761.335 2.165.623 3.623.638 3.417 0 5.638-1.605 5.662-4.093.014-1.361-.853-2.4-2.732-3.253-1.138-.555-1.833-.925-1.827-1.486 0-.498.59-1.03 1.863-1.03zm11.512-2.284h-2.513c-.78 0-1.36.214-1.703.995L28.326 26.37h3.415s.556-1.476.683-1.8l4.163.005c.097.419.397 1.795.397 1.795H40l-2.63-11.973zm-4.01 7.721c.267-.687 1.295-3.347 1.295-3.347-.018.032.265-.693.433-1.144l.219 1.033.753 3.458h-2.7z"/></g><defs><clipPath id="clip0_0_1424"><path fill="#fff" d="M0 0h40v40H0z"/></clipPath></defs></svg>