<svg width="40" height="40" viewBox="0 0 40 40" fill="none" xmlns="http://www.w3.org/2000/svg">
<g clip-path="url(#clip0_0_1441)">
<g opacity="0.54">
<path fill-rule="evenodd" clip-rule="evenodd" d="M3.69893 15.0016C4.05628 14.9995 5.11832 14.9038 5.56818 16.4221C5.87121 17.4448 6.35392 19.1201 7.01631 21.4479H7.28607C7.99642 18.9938 8.4844 17.3185 8.75 16.4221C9.20454 14.888 10.3409 15.0016 10.7955 15.0016L14.3024 15.0017V25.9107H10.728V19.4818H10.4883L8.49581 25.9107H5.80657L3.81404 19.4771H3.57435V25.9107H0V15.0017L3.69893 15.0016ZM19.4351 15.0017V21.4353H19.7202L22.144 16.145C22.6144 15.0922 23.6172 15.0017 23.6172 15.0017H27.0761V25.9107H23.4271V19.4771H23.142L20.7658 24.7674C20.2953 25.8155 19.245 25.9107 19.245 25.9107H15.7861V15.0017H19.4351ZM39.6887 20.1857C39.1797 21.6281 37.5812 22.6611 35.8115 22.6611H31.9848V25.9107H28.5148V20.1857H39.6887Z" fill="#7A838D"/>
<path fill-rule="evenodd" clip-rule="evenodd" d="M35.979 14.9998H28.333C28.515 17.4285 30.6065 19.5076 32.7717 19.5076H39.9299C40.343 17.4891 38.921 14.9998 35.979 14.9998Z" fill="#7A838D"/>
</g>
</g>
<defs>
<clipPath id="clip0_0_1441">
<rect width="40" height="40" fill="white"/>
</clipPath>
</defs>
</svg>
