<svg width="40" height="40" viewBox="0 0 40 40" fill="none" xmlns="http://www.w3.org/2000/svg">
<g clip-path="url(#clip0_0_1424)">
<g opacity="0.54">
<path d="M16.0163 14.3867L13.9834 26.3658H17.2346L19.2692 14.3867H16.0163Z" fill="#7A838D"/>
<path d="M11.2573 14.401L8.07291 22.5704L7.7334 21.3368C7.1054 19.8506 5.32256 17.7161 3.22949 16.3709L6.14123 26.3607L9.58146 26.3549L14.7017 14.3984L11.2573 14.401Z" fill="#7A838D"/>
<path d="M6.49914 15.2545C6.31015 14.5248 5.76243 14.3073 5.08258 14.2812H0.0418113L0 14.5197C3.92273 15.4753 6.51837 17.7777 7.59543 20.5462L6.49914 15.2545Z" fill="#7A838D"/>
<path d="M25.8585 16.682C26.9222 16.6652 27.6932 16.8986 28.2919 17.1405L28.5854 17.279L29.0253 14.6827C28.3814 14.44 27.3721 14.1797 26.1127 14.1797C22.8999 14.1797 20.6354 15.8045 20.6179 18.133C20.597 19.8535 22.231 20.8141 23.4652 21.3876C24.7321 21.9754 25.1569 22.3491 25.1511 22.8739C25.141 23.6758 24.1409 24.0436 23.2068 24.0436C21.9048 24.0436 21.2133 23.8631 20.1454 23.4163L19.7265 23.2249L19.269 25.906C20.03 26.2411 21.434 26.5291 22.8916 26.5442C26.3092 26.5442 28.5302 24.9387 28.5537 22.4507C28.5679 21.0895 27.7007 20.0508 25.8217 19.1985C24.6844 18.6427 23.9887 18.2732 23.9954 17.7123C23.9954 17.2143 24.5858 16.682 25.8585 16.682Z" fill="#7A838D"/>
<path d="M37.3691 14.3984H34.8571C34.0769 14.3984 33.4966 14.6117 33.1537 15.3926L28.3262 26.3708H31.7405C31.7405 26.3708 32.2974 24.8946 32.4237 24.5713C32.7975 24.5713 36.1148 24.5764 36.5872 24.5764C36.6842 24.9946 36.9836 26.3708 36.9836 26.3708H39.9999L37.3691 14.3984ZM33.3594 22.1194C33.627 21.4317 34.6547 18.7716 34.6547 18.7716C34.6372 18.8043 34.9198 18.0788 35.0879 17.6279L35.307 18.6607C35.307 18.6607 35.93 21.5207 36.0604 22.1194H33.3594Z" fill="#7A838D"/>
</g>
</g>
<defs>
<clipPath id="clip0_0_1424">
<rect width="40" height="40" fill="white"/>
</clipPath>
</defs>
</svg>
