<?xml version="1.0" standalone="no"?>
<!DOCTYPE svg PUBLIC "-//W3C//DTD SVG 20010904//EN"
 "http://www.w3.org/TR/2001/REC-SVG-20010904/DTD/svg10.dtd">
<svg version="1.0" xmlns="http://www.w3.org/2000/svg"
 width="736.000000pt" height="736.000000pt" viewBox="0 0 736.000000 736.000000"
 preserveAspectRatio="xMidYMid meet">
<metadata>
Created by potrace 1.14, written by Peter Selinger 2001-2017
</metadata>
<g transform="translate(0.000000,736.000000) scale(0.100000,-0.100000)"
fill="#000000" stroke="none">
<path d="M3480 7234 c-107 -68 -202 -127 -210 -131 -42 -22 -115 -68 -118 -75
-2 -4 -8 -8 -13 -8 -5 0 -40 -20 -77 -44 -37 -24 -110 -70 -162 -102 -52 -32
-97 -61 -100 -64 -3 -3 -17 -12 -32 -20 -32 -18 -143 -86 -293 -180 -60 -39
-130 -82 -155 -97 -25 -15 -74 -46 -110 -68 -74 -48 -335 -211 -365 -228 -11
-7 -33 -21 -50 -32 -16 -12 -64 -41 -105 -65 -41 -24 -88 -53 -105 -65 -16
-11 -39 -26 -50 -32 -24 -15 -118 -72 -154 -94 -14 -9 -129 -81 -256 -161
-200 -125 -342 -214 -431 -268 -13 -8 -121 -76 -239 -150 l-215 -134 2 -455 3
-454 70 -44 c39 -24 79 -48 90 -53 11 -6 27 -14 35 -20 35 -23 333 -200 337
-200 3 0 17 -8 31 -19 15 -10 43 -28 62 -39 91 -51 466 -274 472 -280 4 -4
-124 -88 -284 -187 -160 -99 -297 -186 -304 -193 -8 -7 -14 -11 -14 -8 0 2
-22 -10 -48 -27 -26 -18 -139 -88 -250 -157 l-202 -125 0 -455 0 -456 117 -69
c65 -39 127 -74 138 -80 11 -5 22 -12 25 -16 3 -3 34 -22 70 -43 36 -20 74
-42 85 -49 42 -26 150 -90 365 -217 124 -73 232 -139 240 -146 8 -7 17 -12 20
-11 3 0 16 -6 30 -15 50 -31 284 -171 316 -189 18 -10 136 -80 261 -155 125
-75 246 -147 268 -159 22 -13 165 -98 318 -189 154 -91 283 -166 287 -166 5 0
10 -4 12 -8 1 -5 35 -26 73 -47 39 -21 72 -41 75 -44 9 -10 64 -42 83 -48 9
-3 17 -9 17 -14 0 -5 4 -9 9 -9 5 0 100 -54 210 -120 111 -66 203 -120 205
-120 3 0 32 -18 65 -40 33 -22 64 -40 70 -40 5 0 16 -6 23 -12 49 -46 41 -49
309 112 138 82 255 150 260 150 5 0 9 5 9 10 0 6 4 10 10 10 5 0 38 18 72 40
35 22 69 40 76 40 6 0 12 4 12 8 0 5 12 15 28 23 15 8 70 40 123 71 53 32 102
58 108 58 6 0 11 5 11 10 0 6 4 10 10 10 5 0 34 16 64 35 30 19 59 35 64 35 5
0 15 6 21 14 7 8 26 22 44 31 37 19 48 26 147 84 41 24 91 54 110 67 19 12 47
28 63 35 15 7 27 16 27 21 0 4 4 8 9 8 6 0 38 17 73 37 35 21 71 42 80 48 42
25 274 162 303 180 35 21 207 123 237 140 10 5 111 66 225 134 115 68 226 135
248 148 22 13 55 31 73 40 17 9 32 20 32 25 0 4 5 8 10 8 6 0 54 26 108 59
243 146 498 297 514 303 17 7 18 37 18 466 l0 458 -42 25 c-22 13 -53 31 -67
39 -14 8 -59 37 -99 63 -40 26 -77 47 -81 47 -5 0 -11 3 -13 8 -1 4 -37 27
-78 52 -41 25 -76 48 -78 52 -2 5 -10 8 -18 8 -8 0 -14 5 -14 10 0 6 -5 10
-11 10 -6 0 -31 14 -56 30 -24 17 -48 30 -54 30 -5 0 -9 5 -9 10 0 6 -5 10
-10 10 -10 0 -90 49 -100 61 -12 14 -49 -5 -264 -136 -18 -11 -51 -31 -74 -44
-23 -14 -42 -27 -42 -30 0 -8 68 -51 80 -51 5 0 10 -4 10 -10 0 -5 5 -10 10
-10 6 0 23 -9 38 -19 15 -11 115 -74 222 -140 107 -66 200 -125 207 -130 7 -6
15 -11 17 -11 3 0 36 -19 73 -43 l68 -44 0 -234 c0 -129 -4 -239 -8 -246 -6
-9 -121 -81 -255 -158 -42 -25 -229 -136 -362 -215 -80 -47 -224 -133 -320
-190 -96 -56 -191 -113 -210 -125 -19 -13 -136 -82 -260 -155 -124 -73 -236
-140 -250 -149 -14 -9 -29 -18 -35 -21 -13 -6 -59 -34 -333 -197 -123 -73
-226 -133 -228 -133 -3 0 -10 -5 -17 -10 -16 -14 -245 -150 -252 -150 -3 0
-11 -5 -18 -11 -13 -11 -247 -151 -337 -201 -30 -17 -57 -34 -60 -38 -3 -4
-29 -19 -58 -35 -46 -25 -56 -27 -74 -16 -11 7 -35 21 -52 31 -17 9 -101 59
-186 110 -85 51 -168 101 -185 110 -16 10 -86 51 -155 92 -69 41 -249 148
-400 238 -151 90 -338 201 -414 246 -77 46 -143 84 -148 84 -4 0 -8 4 -8 8 0
4 -12 13 -27 20 -36 15 -136 73 -143 82 -3 3 -12 9 -20 13 -8 4 -36 19 -61 34
-25 16 -90 54 -145 87 -54 32 -110 66 -124 74 -14 9 -41 26 -61 37 -20 11 -88
52 -152 90 -65 39 -125 75 -135 80 -10 6 -153 90 -317 188 l-300 179 0 240 1
241 173 109 c95 59 177 108 182 108 5 0 9 5 9 10 0 6 6 10 14 10 8 0 16 4 18
8 2 5 28 23 58 41 30 17 98 59 150 92 52 33 118 74 145 90 63 38 86 52 99 62
23 16 593 371 621 386 16 9 32 19 35 23 3 4 17 13 30 20 44 23 265 162 278
175 7 7 18 13 23 13 6 0 25 11 43 25 18 14 38 25 44 25 7 0 12 5 12 10 0 6 4
10 10 10 8 0 121 68 145 88 6 4 17 11 25 15 8 3 57 32 107 64 322 201 478 299
487 302 6 2 15 8 21 13 5 5 51 34 100 65 50 30 113 71 142 89 28 19 58 37 67
40 16 6 106 -34 106 -48 0 -4 4 -8 9 -8 9 0 158 -91 246 -150 22 -15 47 -30
55 -33 8 -4 52 -31 98 -60 84 -53 511 -319 547 -340 11 -7 44 -28 75 -47 31
-19 64 -40 75 -47 11 -6 85 -53 165 -103 80 -50 154 -97 165 -103 11 -7 22
-15 25 -18 3 -3 13 -9 24 -12 17 -7 16 -9 -7 -27 -14 -11 -30 -20 -36 -20 -6
0 -11 -4 -11 -8 0 -4 -16 -14 -35 -21 -19 -7 -35 -17 -35 -22 0 -5 -4 -9 -10
-9 -5 0 -38 -18 -72 -40 -35 -22 -69 -40 -75 -40 -7 0 -13 -4 -13 -10 0 -5 -7
-10 -15 -10 -8 0 -15 -3 -15 -8 0 -8 -26 -23 -72 -42 -16 -7 -28 -16 -28 -21
0 -5 -5 -9 -10 -9 -6 0 -29 -12 -53 -27 -23 -15 -51 -32 -62 -38 -11 -6 -46
-26 -78 -45 -32 -19 -66 -39 -75 -45 -9 -5 -45 -27 -78 -47 -34 -21 -65 -38
-68 -38 -4 0 -12 -5 -19 -11 -7 -5 -111 -69 -232 -140 -121 -71 -227 -134
-235 -139 -8 -5 -66 -39 -128 -75 l-112 -67 -133 78 c-203 120 -330 195 -357
212 -14 9 -28 15 -32 14 -5 -1 -8 3 -8 8 0 6 -4 10 -9 10 -5 0 -58 30 -118 66
-59 37 -114 69 -123 73 -8 4 -32 17 -52 30 -31 19 -38 29 -38 54 -1 123 -107
279 -231 339 -162 78 -350 50 -477 -72 -59 -56 -82 -86 -82 -105 0 -8 -4 -15
-8 -15 -16 0 -44 -132 -42 -200 2 -87 54 -204 120 -270 69 -69 198 -122 295
-121 88 1 120 9 203 49 l53 25 37 -22 c20 -12 45 -25 55 -28 9 -3 17 -9 17
-14 0 -5 4 -9 9 -9 6 0 50 -25 98 -55 48 -30 95 -58 103 -62 8 -4 50 -29 92
-55 43 -26 82 -48 88 -48 5 0 10 -4 10 -10 0 -5 4 -10 8 -10 8 0 364 -209 387
-227 6 -4 24 -15 40 -25 17 -9 44 -24 62 -34 31 -18 32 -18 75 4 23 13 81 47
128 77 47 29 91 54 98 54 6 1 12 5 12 10 0 5 8 11 18 15 9 3 32 15 50 26 17
11 45 28 61 38 52 31 331 197 349 207 90 52 517 306 682 405 127 76 785 467
1035 615 110 66 299 178 420 250 121 72 293 173 382 225 l162 95 1 455 0 456
-332 208 c-183 114 -342 213 -352 219 -11 7 -75 47 -143 90 -69 42 -127 77
-129 77 -3 0 -10 5 -17 11 -10 8 -107 70 -192 122 -11 7 -42 26 -70 43 -267
167 -377 234 -385 234 -6 0 -10 4 -10 8 0 5 -15 16 -32 25 -18 10 -52 30 -75
45 -47 30 -185 116 -237 147 -19 11 -73 45 -121 75 -98 63 -131 83 -201 125
-27 16 -51 32 -54 35 -10 11 -112 70 -121 70 -5 0 -9 5 -9 10 0 6 -5 10 -11
10 -5 0 -37 18 -69 40 -32 22 -62 40 -65 40 -5 0 -99 61 -121 79 -6 5 -20 12
-32 15 -12 4 -22 12 -22 17 0 5 -5 9 -11 9 -5 0 -44 23 -86 50 -42 28 -78 50
-80 50 -2 0 -24 14 -48 30 -24 17 -46 30 -50 30 -3 0 -11 5 -18 11 -14 12
-346 219 -350 218 -1 0 -90 -56 -197 -125z m254 -356 c28 -18 53 -36 54 -40 2
-5 7 -8 12 -8 4 0 61 -33 127 -74 243 -153 287 -181 298 -186 10 -5 69 -42
135 -85 35 -22 236 -148 690 -429 129 -80 240 -150 247 -156 7 -5 14 -10 17
-10 5 0 50 -28 186 -115 19 -12 186 -116 370 -230 343 -212 464 -287 490 -305
43 -28 281 -175 322 -198 27 -15 48 -31 49 -37 6 -51 3 -464 -3 -477 -4 -9
-20 -23 -35 -30 -41 -21 -77 -42 -83 -49 -3 -3 -17 -12 -31 -20 -39 -21 -99
-56 -144 -84 -22 -14 -49 -29 -60 -35 -11 -6 -33 -19 -50 -30 -16 -11 -41 -25
-55 -32 -14 -7 -39 -23 -56 -35 -17 -13 -33 -23 -36 -23 -3 0 -65 -36 -138
-80 -73 -44 -135 -80 -137 -80 -2 0 -39 -22 -83 -49 -43 -27 -88 -52 -99 -56
-12 -3 -21 -11 -21 -17 0 -6 -3 -9 -6 -5 -3 3 -15 -3 -26 -13 -22 -21 -10 -27
-379 205 -80 50 -152 94 -160 98 -22 10 -522 324 -536 336 -7 6 -14 11 -17 11
-6 0 -177 106 -193 120 -7 5 -15 10 -18 10 -4 0 -26 14 -50 30 -24 17 -46 30
-50 30 -3 0 -11 5 -18 10 -11 10 -87 58 -367 231 -47 29 -110 69 -141 89 l-57
38 -251 -157 c-139 -86 -263 -163 -276 -171 -14 -8 -102 -64 -197 -123 -95
-60 -182 -114 -193 -120 -11 -7 -38 -23 -60 -37 -22 -14 -49 -30 -60 -37 -11
-7 -51 -31 -88 -55 -37 -24 -76 -48 -85 -53 -26 -15 -266 -166 -315 -197 -23
-15 -49 -31 -57 -35 -8 -3 -34 -19 -57 -35 -23 -15 -46 -28 -51 -28 -6 0 -12
-4 -14 -8 -1 -4 -32 -26 -67 -48 -35 -21 -80 -49 -100 -62 -92 -57 -96 -58
-140 -29 -22 15 -42 27 -45 27 -2 0 -34 18 -71 41 -37 22 -82 49 -99 58 -63
36 -562 335 -605 362 -24 16 -57 34 -72 41 -16 7 -29 16 -29 20 0 5 -5 8 -10
8 -6 0 -34 15 -63 33 l-52 34 1 239 c2 273 1 254 13 254 7 0 1047 644 1077
667 10 8 39 25 79 47 11 6 22 13 25 16 3 3 46 30 95 60 50 29 92 56 95 59 3 3
17 13 31 21 14 8 123 76 243 150 119 74 228 142 244 150 15 8 29 18 30 23 2 4
10 7 18 7 8 0 14 4 14 9 0 5 8 11 18 15 9 3 29 14 45 23 115 74 363 229 370
232 5 2 41 24 81 50 39 25 81 51 91 58 11 6 76 47 144 90 69 43 142 88 164
101 22 13 46 30 54 38 8 8 19 14 24 14 5 0 28 14 51 30 22 17 43 30 46 30 3 0
28 -15 56 -32z"/>
</g>
</svg>
